<svg xmlns="http://www.w3.org/2000/svg" width="165" height="28">
    <path data-name="사각형 623" style="fill:none" d="M0 0h165v28H0z"/>
    <path data-name="합치기 19" d="M734.444-1095.778a9.183 9.183 0 0 1-3.346-3.584 10.684 10.684 0 0 1-1.218-5.11 12.534 12.534 0 0 1 .6-3.934 10.233 10.233 0 0 1 1.722-3.234l1.176 1.289a8.238 8.238 0 0 0-1.3 2.52 9.951 9.951 0 0 0-.462 3.08 9.611 9.611 0 0 0 .994 4.382 7.729 7.729 0 0 0 2.73 3.093 6.976 6.976 0 0 0 3.865 1.12 6.976 6.976 0 0 0 3.864-1.12 7.722 7.722 0 0 0 2.73-3.093 9.6 9.6 0 0 0 .995-4.382 9.512 9.512 0 0 0-.995-4.369 7.754 7.754 0 0 0-2.73-3.08 6.982 6.982 0 0 0-3.864-1.12 6.857 6.857 0 0 0-2.94.616l-.84-1.484a8.7 8.7 0 0 1 3.78-.812 8.939 8.939 0 0 1 4.76 1.3 9.176 9.176 0 0 1 3.345 3.584 10.614 10.614 0 0 1 1.219 5.082 11.732 11.732 0 0 1-1.219 5.376 9.587 9.587 0 0 1-3.345 3.794 8.542 8.542 0 0 1-4.76 1.386 8.941 8.941 0 0 1-4.761-1.3zm-36.372-14.154 1.6-.643 5.46 15.456-1.6.644zM689-1095.148l7.112-19.824 1.624.56-3.556 9.885h3.556v1.679h-4.144l-3 8.316zm33.628-16.688-2.576 6.272-1.568-.644 3.471-8.456h1.821l4.284 19.769-1.68.336zm-16.38 16.912 3.752-19.74h1.848l6.356 13.748-1.512.784-5.459-11.816-3.3 17.36zm50.092-5.236 1.288-1.092 4.9 5.4-1.2 1.176zm51.917-4.155a11.1 11.1 0 0 1 2.241-6.912l1.134 1.242a8.712 8.712 0 0 0-1.7 5.4c0 4.725 3.132 8.289 7.317 8.289s7.317-3.564 7.317-8.289-3.132-8.262-7.317-8.262a6.673 6.673 0 0 0-2.835.594l-.81-1.431a8.539 8.539 0 0 1 3.645-.783c5.13 0 8.991 4.131 8.991 9.612 0 5.805-3.861 10.179-8.991 10.179s-8.992-4.131-8.992-9.639zm-25.137 3.78h1.674c0 2.565 1.755 4.239 4.455 4.239a4.778 4.778 0 0 0 2.268-.486l.891 1.4a6.355 6.355 0 0 1-3.159.7c-3.726.006-6.129-2.289-6.129-5.853zm-17.54 5.723v-19.852h1.736v8.681h7.365v1.68h-7.365v7.812h8.092v1.679zm-13.775 0v-19.852h1.736v9.716h2.3a4.617 4.617 0 0 0 3.248-1.106 3.785 3.785 0 0 0 1.2-2.926 3.74 3.74 0 0 0-1.2-2.911 4.652 4.652 0 0 0-3.248-1.093h-.056v-1.68h.056a6.388 6.388 0 0 1 4.494 1.554 5.335 5.335 0 0 1 1.694 4.13 5.334 5.334 0 0 1-1.694 4.13 6.429 6.429 0 0 1-4.522 1.554h-2.273v8.483zm82.1-5.345 1.242-1.053 4.725 5.211-1.161 1.134zm9.045 5.157v-19.143h1.674v8.37h7.1v1.62h-7.1v7.533h7.8v1.62zm-13.419 0v-19.143h1.674v9.369h2.214c2.619 0 4.293-1.539 4.293-3.888s-1.674-3.861-4.293-3.861h-.054v-1.62h.054c3.618 0 5.967 2.16 5.967 5.481s-2.349 5.481-5.994 5.481h-2.187v8.181zm-28.188 0v-14.364h1.674V-1095zm-8.1-3.4a4.165 4.165 0 0 0 .54-2.187c0-1.809-1.35-3.348-3.753-3.969l-1.782-.459c-2.727-.7-3.942-2.484-3.942-4.59a4.719 4.719 0 0 1 .54-2.3l1.35 1.107a3.557 3.557 0 0 0-.216 1.188c0 1.377.81 2.484 2.889 3.024l1.674.432c3.267.837 4.914 2.97 4.914 5.562a5.8 5.8 0 0 1-.945 3.348zm-.486-11.2a3.091 3.091 0 0 0-3.348-3.24 3.817 3.817 0 0 0-1.593.324l-.837-1.4a4.981 4.981 0 0 1 2.43-.54 4.629 4.629 0 0 1 4.995 4.86zm54.243-2.923v-1.62h5.292v1.62zm-50.058 0v-1.62h10.5v1.62zm-27.164-.461v-1.68h5.488v1.68z" transform="translate(-688.58 1119)" style="fill:#fff"/>
</svg>
