<svg width="180" height="100" viewBox="0 0 180 100" fill="none" xmlns="http://www.w3.org/2000/svg">
<g clip-path="url(#clip0_16_2)">
<path d="M16 14C18.4853 14 20.5 11.9853 20.5 9.5C20.5 7.01472 18.4853 5 16 5C13.5147 5 11.5 7.01472 11.5 9.5C11.5 11.9853 13.5147 14 16 14Z" stroke="white" stroke-width="1.5" stroke-miterlimit="10"/>
<path d="M5.5 27C5.5 19.727 10.749 17 16 17C21.251 17 26.5 19.727 26.5 27" stroke="white" stroke-width="1.5" stroke-miterlimit="10"/>
</g>
<g clip-path="url(#clip1_16_2)">
<path d="M101 35.5L107 29.5" stroke="#666666" stroke-width="1.5"/>
<path d="M101 24.5L107 30.5" stroke="#666666" stroke-width="1.5"/>
</g>
<g clip-path="url(#clip2_16_2)">
<path d="M80 39C84.9706 39 89 34.9706 89 30C89 25.0294 84.9706 21 80 21C75.0294 21 71 25.0294 71 30C71 34.9706 75.0294 39 80 39Z" fill="white"/>
<path d="M80 38.5C84.6944 38.5 88.5 34.6944 88.5 30C88.5 25.3056 84.6944 21.5 80 21.5C75.3056 21.5 71.5 25.3056 71.5 30C71.5 34.6944 75.3056 38.5 80 38.5Z" stroke="black"/>
<path d="M82.5229 33.1992C82.3839 33.1991 82.2491 33.1515 82.1409 33.0642L79.1709 30.5882C79.0906 30.5321 79.025 30.4574 78.9797 30.3705C78.9344 30.2837 78.9108 30.1871 78.9109 30.0891L78.8999 25.6332C78.9063 25.4763 78.9731 25.328 79.0863 25.2193C79.1995 25.1105 79.3504 25.0498 79.5074 25.0498C79.6644 25.0498 79.8153 25.1105 79.9285 25.2193C80.0417 25.328 80.1085 25.4763 80.1149 25.6332L80.1249 29.8032L82.9059 32.1242C83.0026 32.2033 83.0725 32.3103 83.106 32.4307C83.1394 32.5511 83.1349 32.6788 83.093 32.7965C83.0511 32.9142 82.9738 33.0161 82.8717 33.0882C82.7697 33.1602 82.6478 33.199 82.5229 33.1992Z" fill="black"/>
<path d="M79.5078 25.125C79.3731 25.125 79.2439 25.1786 79.1486 25.2738C79.0533 25.3691 78.9998 25.4983 78.9998 25.633L79.0098 30.089C79.0098 30.263 79.0978 30.416 79.2308 30.508L82.2038 32.986C82.3083 33.066 82.4399 33.1022 82.5707 33.0867C82.7014 33.0713 82.821 33.0055 82.904 32.9034C82.987 32.8012 83.027 32.6707 83.0154 32.5396C83.0038 32.4085 82.9415 32.287 82.8418 32.201L80.0258 29.851L80.0158 25.633C80.0158 25.5663 80.0027 25.5003 79.9771 25.4386C79.9516 25.377 79.9142 25.321 79.867 25.2738C79.8198 25.2267 79.7638 25.1892 79.7022 25.1637C79.6406 25.1382 79.5745 25.125 79.5078 25.125ZM79.5078 24.925C79.8978 24.925 80.2148 25.242 80.2148 25.633L80.2248 29.757L82.9698 32.047C83.1096 32.167 83.197 32.3368 83.2134 32.5202C83.2297 32.7037 83.1737 32.8863 83.0573 33.029C82.9409 33.1718 82.7733 33.2634 82.5903 33.2843C82.4074 33.3053 82.2234 33.2538 82.0778 33.141L79.1098 30.667C79.0172 30.6017 78.9416 30.5152 78.8894 30.4146C78.8372 30.314 78.8099 30.2024 78.8098 30.089L78.7998 25.633C78.7998 25.243 79.1168 24.925 79.5078 24.925Z" fill="black"/>
</g>
<g clip-path="url(#clip3_16_2)">
<path d="M149 18H142V11" stroke="#666666" stroke-width="1.3" stroke-linecap="round" stroke-linejoin="round"/>
<path d="M142 18L148.5 11.5" stroke="#666666" stroke-width="1.3"/>
<path d="M151 2H158V9" stroke="#666666" stroke-width="1.3" stroke-linecap="round" stroke-linejoin="round"/>
<path d="M158 2L151.5 8.5" stroke="#666666" stroke-width="1.3"/>
</g>
<g clip-path="url(#clip4_16_2)">
<path d="M143 31.1L150.1 24L157.2 31.1" stroke="#161615" stroke-miterlimit="10"/>
<path d="M150.1 24V40" stroke="#161615" stroke-miterlimit="10"/>
<path d="M158.169 22.069H142.032" stroke="#161615" stroke-miterlimit="10"/>
</g>
<g clip-path="url(#clip5_16_2)">
<path d="M48.2357 38.2679H43.6847C42.7277 38.2679 41.9497 37.5379 41.9497 36.6419V28.1989L42.1297 28.0349L49.4297 21.4269L49.7897 21.1019L50.1577 21.4179L57.8577 28.0249L58.0487 28.1899V36.6419C58.0487 37.5379 57.2717 38.2669 56.3157 38.2669H51.2137V33.5689C51.2137 33.4496 51.1663 33.3351 51.0819 33.2507C50.9975 33.1663 50.8831 33.1189 50.7637 33.1189H49.2357C49.1164 33.1189 49.0019 33.1663 48.9175 33.2507C48.8331 33.3351 48.7857 33.4496 48.7857 33.5689V38.2669L48.2357 38.2679Z" fill="white"/>
<path d="M48.2359 37.718V33.569C48.2359 33.018 48.6839 32.569 49.2359 32.569H50.7649C51.3149 32.569 51.7649 33.018 51.7649 33.569V37.717H56.3149C56.9679 37.717 57.4989 37.235 57.4989 36.642V28.442L49.7999 21.836L42.4999 28.443V36.642C42.4999 37.235 43.0319 37.717 43.6849 37.717L48.2359 37.718ZM48.2369 38.818H43.6839C42.4239 38.818 41.3999 37.841 41.3999 36.642V28.442C41.3999 28.132 41.5309 27.836 41.7619 27.627L49.0619 21.019C49.2604 20.8394 49.5177 20.7385 49.7853 20.735C50.053 20.7315 50.3127 20.8257 50.5159 21L58.2159 27.608C58.3362 27.7113 58.4326 27.8395 58.4987 27.9836C58.5648 28.1277 58.599 28.2844 58.5989 28.443V36.642C58.5989 37.842 57.5749 38.817 56.3159 38.817H51.7639C51.4722 38.817 51.1924 38.7011 50.9861 38.4948C50.7798 38.2885 50.6639 38.0087 50.6639 37.717V33.669H49.3359V37.717C49.336 37.8615 49.3077 38.0047 49.2525 38.1382C49.1972 38.2718 49.1162 38.3932 49.0141 38.4954C48.9119 38.5977 48.7906 38.6788 48.6571 38.7341C48.5236 38.7895 48.3814 38.818 48.2369 38.818Z" fill="black"/>
</g>
<g clip-path="url(#clip6_16_2)">
<path d="M82.4849 12.944L83.1269 12.305L83.8709 11.566C84.0419 11.3757 84.251 11.2236 84.4846 11.1194C84.7182 11.0152 84.9711 10.9614 85.2269 10.9614C85.4827 10.9614 85.7356 11.0152 85.9693 11.1194C86.2029 11.2236 86.412 11.3757 86.5829 11.566C87.3396 12.316 88.1063 13.0826 88.8829 13.866C89.0769 14.039 89.232 14.2512 89.3379 14.4885C89.4438 14.7259 89.4981 14.9831 89.4973 15.243C89.4964 15.5029 89.4404 15.7597 89.333 15.9964C89.2255 16.2331 89.0691 16.4442 88.8739 16.616C88.628 16.8422 88.36 17.0433 88.0739 17.216C87.9926 17.2686 87.9073 17.3223 87.8179 17.377C87.4616 17.5954 87.1002 17.8055 86.7339 18.007C86.2086 18.2776 85.6349 18.4417 85.0459 18.4897C84.4569 18.5378 83.8642 18.4689 83.3019 18.287C83.2019 18.257 83.0289 18.198 82.7879 18.106C82.3423 17.9359 81.9043 17.7467 81.4749 17.539C80.0524 16.8576 78.7191 16.0038 77.5049 14.997C76.9971 14.5751 76.5136 14.1247 76.0569 13.648C75.6883 13.2626 75.3379 12.8626 75.0059 12.448C73.9574 11.1317 73.0816 9.68661 72.3999 8.14797C72.192 7.68239 72.0045 7.20793 71.8379 6.72597C71.7773 6.5557 71.7229 6.38325 71.6749 6.20897C71.5046 5.63792 71.4569 5.03732 71.535 4.44654C71.613 3.85577 71.8151 3.28817 72.1279 2.78097C72.3336 2.46525 72.5487 2.15578 72.7729 1.85297L72.9649 1.60197C73.0999 1.42655 73.2455 1.25957 73.4009 1.10197C73.5726 0.912951 73.782 0.761921 74.0155 0.65857C74.249 0.555219 74.5016 0.501831 74.7569 0.501831C75.0123 0.501831 75.2649 0.555219 75.4984 0.65857C75.7319 0.761921 75.9412 0.912951 76.1129 1.10197C76.4449 1.42797 77.8809 2.86497 78.3999 3.38797C78.5977 3.55984 78.7563 3.77216 78.8649 4.01058C78.9736 4.24899 79.0298 4.50795 79.0298 4.76997C79.0298 5.03198 78.9736 5.29094 78.8649 5.52936C78.7563 5.76778 78.5977 5.98009 78.3999 6.15197L77.6229 6.92997L77.0359 7.51697L76.8179 7.73497C76.8709 7.87097 76.9599 8.07997 77.0809 8.34097C77.3155 8.85069 77.5827 9.34472 77.8809 9.81997C78.1639 10.2843 78.4994 10.7145 78.8809 11.102C79.2278 11.4352 79.604 11.7364 80.0049 12.002C80.5077 12.3362 81.0333 12.6346 81.5779 12.895C81.8559 13.029 82.0779 13.127 82.2319 13.188L82.4849 12.944ZM88.2129 14.534C87.4349 13.75 86.6683 12.9833 85.9129 12.234C85.8301 12.1309 85.7252 12.0477 85.6059 11.9906C85.4867 11.9335 85.3562 11.9038 85.2239 11.9038C85.0917 11.9038 84.9612 11.9335 84.8419 11.9906C84.7227 12.0477 84.6178 12.1309 84.5349 12.234L83.7939 12.97L83.1499 13.611L82.8579 13.902C82.7394 14.0153 82.5912 14.0927 82.4305 14.1252C82.2698 14.1578 82.1032 14.1442 81.9499 14.086C81.7909 14.024 81.5199 13.908 81.1739 13.742C80.5891 13.462 80.0247 13.1412 79.4849 12.782C79.0367 12.4871 78.616 12.1524 78.2279 11.782C77.7919 11.3432 77.4083 10.8553 77.0849 10.328C76.7653 9.81768 76.479 9.28724 76.2279 8.73997C76.0779 8.41497 75.9729 8.16097 75.9199 8.02097C75.8631 7.8676 75.8505 7.70135 75.8836 7.54116C75.9166 7.38098 75.994 7.2333 76.1069 7.11497L76.3729 6.84897L76.9589 6.26297L77.7349 5.48497C77.8446 5.40094 77.9335 5.29279 77.9947 5.16888C78.0559 5.04498 78.0877 4.90865 78.0877 4.77047C78.0877 4.63229 78.0559 4.49596 77.9947 4.37205C77.9335 4.24815 77.8446 4.13999 77.7349 4.05597C76.9778 3.29379 76.2181 2.53412 75.4559 1.77697C75.3722 1.67429 75.2666 1.59154 75.147 1.53471C75.0273 1.47788 74.8964 1.4484 74.7639 1.4484C74.6314 1.4484 74.5006 1.47788 74.3809 1.53471C74.2612 1.59154 74.1557 1.67429 74.0719 1.77697C73.9452 1.90645 73.8264 2.04336 73.7159 2.18697C73.6558 2.26285 73.5971 2.33986 73.5399 2.41797C73.3979 2.60897 73.2529 2.81797 73.1129 3.01797C73.0289 3.14197 72.9659 3.23697 72.9249 3.30097C72.6923 3.6913 72.5422 4.12519 72.4839 4.57583C72.4256 5.02647 72.4603 5.48428 72.5859 5.92097C72.6089 6.00597 72.6599 6.17397 72.7419 6.41397C72.8809 6.81397 73.0569 7.27097 73.2739 7.75797C73.9227 9.22245 74.7561 10.5979 75.7539 11.851C76.0693 12.245 76.4026 12.6246 76.7539 12.99C77.1857 13.4409 77.6428 13.8669 78.1229 14.266C79.2772 15.2229 80.5447 16.0343 81.8969 16.682C82.3469 16.898 82.7629 17.076 83.1359 17.217C83.3569 17.301 83.5119 17.354 83.6219 17.388C84.5029 17.6638 85.4565 17.5882 86.2829 17.177C86.3479 17.142 86.4619 17.077 86.6099 16.994C86.8569 16.854 87.1029 16.709 87.3319 16.568C87.4159 16.516 87.4959 16.4656 87.5719 16.417C87.7974 16.2808 88.0102 16.1249 88.2079 15.951C88.3155 15.8671 88.4027 15.76 88.4628 15.6375C88.5228 15.5151 88.5543 15.3806 88.5548 15.2442C88.5553 15.1078 88.5248 14.9731 88.4655 14.8502C88.4063 14.7273 88.3199 14.6186 88.2129 14.534Z" fill="black"/>
<path d="M76.8059 7.67497V7.67997M82.4849 12.944L83.1269 12.305L83.8709 11.566C84.0419 11.3757 84.251 11.2236 84.4846 11.1194C84.7182 11.0152 84.9711 10.9614 85.2269 10.9614C85.4827 10.9614 85.7356 11.0152 85.9693 11.1194C86.2029 11.2236 86.412 11.3757 86.5829 11.566C87.3396 12.316 88.1063 13.0826 88.8829 13.866C89.0769 14.039 89.232 14.2512 89.3379 14.4885C89.4438 14.7259 89.4981 14.9831 89.4973 15.243C89.4964 15.5029 89.4404 15.7597 89.333 15.9964C89.2255 16.2331 89.0691 16.4442 88.8739 16.616C88.628 16.8422 88.36 17.0433 88.0739 17.216C87.9926 17.2686 87.9073 17.3223 87.8179 17.377C87.4616 17.5954 87.1002 17.8055 86.7339 18.007C86.2086 18.2776 85.6349 18.4417 85.0459 18.4897C84.4569 18.5378 83.8642 18.4689 83.3019 18.287C83.2019 18.257 83.0289 18.198 82.7879 18.106C82.3423 17.9359 81.9043 17.7467 81.4749 17.539C80.0524 16.8576 78.7191 16.0038 77.5049 14.997C76.9971 14.5751 76.5136 14.1247 76.0569 13.648C75.6883 13.2626 75.3379 12.8626 75.0059 12.448C73.9574 11.1317 73.0816 9.68661 72.3999 8.14797C72.192 7.68239 72.0045 7.20793 71.8379 6.72597C71.7773 6.5557 71.7229 6.38325 71.6749 6.20897C71.5046 5.63792 71.4569 5.03732 71.535 4.44654C71.613 3.85577 71.8151 3.28817 72.1279 2.78097C72.3336 2.46525 72.5487 2.15578 72.7729 1.85297L72.9649 1.60197C73.0999 1.42655 73.2455 1.25957 73.4009 1.10197C73.5726 0.912951 73.782 0.761921 74.0155 0.65857C74.249 0.555219 74.5016 0.501831 74.7569 0.501831C75.0123 0.501831 75.2649 0.555219 75.4984 0.65857C75.7319 0.761921 75.9412 0.912951 76.1129 1.10197C76.4449 1.42797 77.8809 2.86497 78.3999 3.38797C78.5977 3.55984 78.7563 3.77216 78.8649 4.01058C78.9736 4.24899 79.0298 4.50795 79.0298 4.76997C79.0298 5.03198 78.9736 5.29094 78.8649 5.52936C78.7563 5.76778 78.5977 5.98009 78.3999 6.15197L77.6229 6.92997L77.0359 7.51697L76.8179 7.73497C76.8709 7.87097 76.9599 8.07997 77.0809 8.34097C77.3155 8.85069 77.5827 9.34472 77.8809 9.81997C78.1639 10.2843 78.4994 10.7145 78.8809 11.102C79.2278 11.4352 79.604 11.7364 80.0049 12.002C80.5077 12.3362 81.0333 12.6346 81.5779 12.895C81.8559 13.029 82.0779 13.127 82.2319 13.188L82.4849 12.944ZM88.2129 14.534C87.4349 13.75 86.6683 12.9833 85.9129 12.234C85.8301 12.1309 85.7252 12.0477 85.6059 11.9906C85.4867 11.9335 85.3562 11.9038 85.2239 11.9038C85.0917 11.9038 84.9612 11.9335 84.8419 11.9906C84.7227 12.0477 84.6178 12.1309 84.5349 12.234L83.7939 12.97L83.1499 13.611L82.8579 13.902C82.7394 14.0153 82.5912 14.0927 82.4305 14.1252C82.2698 14.1578 82.1032 14.1442 81.9499 14.086C81.7909 14.024 81.5199 13.908 81.1739 13.742C80.5891 13.462 80.0247 13.1412 79.4849 12.782C79.0367 12.4871 78.616 12.1524 78.2279 11.782C77.7919 11.3432 77.4083 10.8553 77.0849 10.328C76.7653 9.81768 76.479 9.28724 76.2279 8.73997C76.0779 8.41497 75.9729 8.16097 75.9199 8.02097C75.8631 7.8676 75.8505 7.70135 75.8836 7.54116C75.9166 7.38098 75.994 7.2333 76.1069 7.11497L76.3729 6.84897L76.9589 6.26297L77.7349 5.48497C77.8446 5.40094 77.9335 5.29279 77.9947 5.16888C78.0559 5.04498 78.0877 4.90865 78.0877 4.77047C78.0877 4.63229 78.0559 4.49596 77.9947 4.37205C77.9335 4.24815 77.8446 4.13999 77.7349 4.05597C76.9778 3.29379 76.2181 2.53412 75.4559 1.77697C75.3722 1.67429 75.2666 1.59154 75.147 1.53471C75.0273 1.47788 74.8964 1.4484 74.7639 1.4484C74.6314 1.4484 74.5006 1.47788 74.3809 1.53471C74.2612 1.59154 74.1557 1.67429 74.0719 1.77697C73.9452 1.90645 73.8264 2.04336 73.7159 2.18697C73.6558 2.26285 73.5971 2.33986 73.5399 2.41797C73.3979 2.60897 73.2529 2.81797 73.1129 3.01797C73.0289 3.14197 72.9659 3.23697 72.9249 3.30097C72.6923 3.6913 72.5422 4.12519 72.4839 4.57583C72.4256 5.02647 72.4603 5.48428 72.5859 5.92097C72.6089 6.00597 72.6599 6.17397 72.7419 6.41397C72.8809 6.81397 73.0569 7.27097 73.2739 7.75797C73.9227 9.22245 74.7561 10.5979 75.7539 11.851C76.0693 12.245 76.4026 12.6246 76.7539 12.99C77.1857 13.4409 77.6428 13.8669 78.1229 14.266C79.2772 15.2229 80.5447 16.0343 81.8969 16.682C82.3469 16.898 82.7629 17.076 83.1359 17.217C83.3569 17.301 83.5119 17.354 83.6219 17.388C84.5029 17.6638 85.4565 17.5882 86.2829 17.177C86.3479 17.142 86.4619 17.077 86.6099 16.994C86.8569 16.854 87.1029 16.709 87.3319 16.568C87.4159 16.516 87.4959 16.4656 87.5719 16.417C87.7974 16.2808 88.0102 16.1249 88.2079 15.951C88.3155 15.8671 88.4027 15.76 88.4628 15.6375C88.5228 15.5151 88.5543 15.3806 88.5548 15.2442C88.5553 15.1078 88.5248 14.9731 88.4655 14.8502C88.4063 14.7273 88.3199 14.6186 88.2129 14.534Z" stroke="black" stroke-width="0.1"/>
</g>
<g clip-path="url(#clip7_16_2)">
<path d="M50.1842 19.0093L55.4912 11.5257H55.4802C56.3504 10.3962 56.8213 9.01447 56.8202 7.59362C56.8202 3.94789 53.7672 0.990688 50.0002 0.990688C46.2322 0.990688 43.1792 3.9469 43.1792 7.59362C43.1792 9.06479 43.6762 10.424 44.5172 11.5217H44.5052L50.1842 19.0093ZM50.1842 20C50.029 20 49.8759 19.9642 49.737 19.8954C49.5981 19.8266 49.4774 19.7268 49.3842 19.6037L43.7052 12.1181C43.6763 12.0797 43.6502 12.0393 43.6272 11.9972C42.6831 10.7198 42.1758 9.17687 42.1792 7.59362C42.1792 3.40797 45.6872 0 49.9992 0C54.3122 0 57.8202 3.40697 57.8202 7.59362C57.8236 9.18024 57.3141 10.7262 56.3662 12.0052C56.3488 12.0359 56.3298 12.0656 56.3092 12.0943L51.0022 19.579C50.91 19.709 50.7875 19.8151 50.6451 19.8884C50.5027 19.9617 50.3447 20 50.1842 20Z" fill="black"/>
<path d="M50 8.30296C51.1046 8.30296 52 7.41587 52 6.32159C52 5.2273 51.1046 4.34021 50 4.34021C48.8954 4.34021 48 5.2273 48 6.32159C48 7.41587 48.8954 8.30296 50 8.30296Z" fill="black"/>
</g>
<g clip-path="url(#clip8_16_2)">
<path d="M24.69 62.698C24.558 62.698 24.4291 62.7371 24.3194 62.8104C24.2097 62.8837 24.1242 62.9879 24.0737 63.1097C24.0232 63.2316 24.0101 63.3657 24.0358 63.4951C24.0615 63.6245 24.125 63.7434 24.2183 63.8366C24.3116 63.9299 24.4305 63.9935 24.5598 64.0192C24.6892 64.0449 24.8233 64.0317 24.9452 63.9812C25.0671 63.9307 25.1713 63.8453 25.2446 63.7356C25.3179 63.6259 25.357 63.4969 25.357 63.365C25.357 63.1881 25.2867 63.0185 25.1616 62.8934C25.0365 62.7683 24.8669 62.698 24.69 62.698ZM29.357 62.698C29.225 62.698 29.0961 62.7371 28.9864 62.8104C28.8767 62.8837 28.7912 62.9879 28.7407 63.1097C28.6903 63.2316 28.677 63.3657 28.7028 63.4951C28.7285 63.6245 28.792 63.7434 28.8853 63.8366C28.9786 63.9299 29.0974 63.9935 29.2268 64.0192C29.3562 64.0449 29.4903 64.0317 29.6122 63.9812C29.7341 63.9307 29.8383 63.8453 29.9116 63.7356C29.9848 63.6259 30.0239 63.4969 30.0239 63.365C30.0239 63.1881 29.9537 63.0185 29.8286 62.8934C29.7035 62.7683 29.5339 62.698 29.357 62.698ZM34.0239 62.698C33.892 62.698 33.7631 62.7371 33.6534 62.8104C33.5437 62.8837 33.4582 62.9879 33.4077 63.1097C33.3573 63.2316 33.344 63.3657 33.3698 63.4951C33.3955 63.6245 33.459 63.7434 33.5523 63.8366C33.6456 63.9299 33.7644 63.9935 33.8938 64.0192C34.0232 64.0449 34.1573 64.0317 34.2792 63.9812C34.4011 63.9307 34.5053 63.8453 34.5785 63.7356C34.6518 63.6259 34.691 63.4969 34.691 63.365C34.691 63.1881 34.6207 63.0185 34.4956 62.8934C34.3705 62.7683 34.2008 62.698 34.0239 62.698ZM15.357 68.034C15.225 68.0338 15.096 68.0727 14.9862 68.1458C14.8764 68.219 14.7908 68.323 14.7401 68.4448C14.6894 68.5666 14.676 68.7007 14.7016 68.8301C14.7271 68.9596 14.7905 69.0785 14.8836 69.1719C14.9768 69.2654 15.0955 69.3291 15.2248 69.355C15.3542 69.3809 15.4883 69.3679 15.6103 69.3176C15.7322 69.2673 15.8365 69.182 15.91 69.0724C15.9835 68.9628 16.0228 68.8339 16.023 68.702C16.0236 68.6141 16.0069 68.5269 15.9737 68.4455C15.9406 68.364 15.8916 68.2899 15.8297 68.2275C15.7678 68.165 15.6942 68.1154 15.6131 68.0815C15.5319 68.0477 15.4449 68.0301 15.357 68.03V68.034ZM20.0239 68.034C19.892 68.034 19.7631 68.0731 19.6534 68.1464C19.5437 68.2197 19.4582 68.3239 19.4077 68.4457C19.3573 68.5676 19.344 68.7017 19.3698 68.8311C19.3955 68.9605 19.459 69.0794 19.5523 69.1726C19.6456 69.2659 19.7644 69.3295 19.8938 69.3552C20.0232 69.3809 20.1573 69.3677 20.2792 69.3172C20.4011 69.2667 20.5053 69.1813 20.5785 69.0716C20.6518 68.9619 20.691 68.8329 20.691 68.701C20.6915 68.6131 20.6746 68.5259 20.6414 68.4445C20.6081 68.3631 20.559 68.2891 20.497 68.2268C20.435 68.1644 20.3613 68.1149 20.2801 68.0811C20.199 68.0474 20.1119 68.03 20.0239 68.03V68.034ZM24.691 68.034C24.5591 68.034 24.4301 68.0731 24.3204 68.1464C24.2107 68.2197 24.1252 68.3239 24.0747 68.4457C24.0242 68.5676 24.011 68.7017 24.0368 68.8311C24.0625 68.9605 24.126 69.0794 24.2193 69.1726C24.3126 69.2659 24.4315 69.3295 24.5608 69.3552C24.6902 69.3809 24.8243 69.3677 24.9462 69.3172C25.0681 69.2667 25.1722 69.1813 25.2455 69.0716C25.3188 68.9619 25.358 68.8329 25.358 68.701C25.3585 68.6131 25.3416 68.5259 25.3083 68.4445C25.2751 68.3631 25.226 68.2891 25.164 68.2268C25.102 68.1644 25.0283 68.1149 24.9471 68.0811C24.866 68.0474 24.7789 68.03 24.691 68.03V68.034ZM29.358 68.034C29.226 68.034 29.0971 68.0731 28.9874 68.1464C28.8777 68.2197 28.7922 68.3239 28.7417 68.4457C28.6912 68.5676 28.6781 68.7017 28.7038 68.8311C28.7295 68.9605 28.793 69.0794 28.8863 69.1726C28.9796 69.2659 29.0985 69.3295 29.2278 69.3552C29.3572 69.3809 29.4913 69.3677 29.6132 69.3172C29.7351 69.2667 29.8393 69.1813 29.9126 69.0716C29.9859 68.9619 30.025 68.8329 30.025 68.701C30.025 68.5241 29.9547 68.3545 29.8296 68.2294C29.7045 68.1043 29.5349 68.034 29.358 68.034ZM34.025 68.034C33.893 68.034 33.7641 68.0731 33.6544 68.1464C33.5447 68.2197 33.4592 68.3239 33.4087 68.4457C33.3583 68.5676 33.345 68.7017 33.3708 68.8311C33.3965 68.9605 33.46 69.0794 33.5533 69.1726C33.6466 69.2659 33.7654 69.3295 33.8948 69.3552C34.0242 69.3809 34.1583 69.3677 34.2802 69.3172C34.4021 69.2667 34.5063 69.1813 34.5796 69.0716C34.6528 68.9619 34.6919 68.8329 34.6919 68.701C34.6925 68.6131 34.6756 68.5259 34.6423 68.4445C34.609 68.3631 34.56 68.2891 34.498 68.2268C34.436 68.1644 34.3623 68.1149 34.2812 68.0811C34.2 68.0474 34.1129 68.03 34.025 68.03V68.034ZM15.357 72.698C15.225 72.698 15.0961 72.7371 14.9864 72.8104C14.8767 72.8837 14.7912 72.9879 14.7407 73.1097C14.6903 73.2316 14.677 73.3657 14.7028 73.4951C14.7285 73.6245 14.792 73.7434 14.8853 73.8366C14.9786 73.9299 15.0974 73.9935 15.2268 74.0192C15.3562 74.0449 15.4903 74.0317 15.6122 73.9812C15.7341 73.9307 15.8383 73.8453 15.9116 73.7356C15.9848 73.6259 16.0239 73.4969 16.0239 73.365C16.0239 73.1881 15.9537 73.0185 15.8286 72.8934C15.7035 72.7683 15.5339 72.698 15.357 72.698ZM20.0239 72.698C19.892 72.698 19.7631 72.7371 19.6534 72.8104C19.5437 72.8837 19.4582 72.9879 19.4077 73.1097C19.3573 73.2316 19.344 73.3657 19.3698 73.4951C19.3955 73.6245 19.459 73.7434 19.5523 73.8366C19.6456 73.9299 19.7644 73.9935 19.8938 74.0192C20.0232 74.0449 20.1573 74.0317 20.2792 73.9812C20.4011 73.9307 20.5053 73.8453 20.5785 73.7356C20.6518 73.6259 20.691 73.4969 20.691 73.365C20.691 73.1881 20.6207 73.0185 20.4956 72.8934C20.3705 72.7683 20.2008 72.698 20.0239 72.698ZM24.691 72.698C24.5591 72.698 24.4301 72.7371 24.3204 72.8104C24.2107 72.8837 24.1252 72.9879 24.0747 73.1097C24.0242 73.2316 24.011 73.3657 24.0368 73.4951C24.0625 73.6245 24.126 73.7434 24.2193 73.8366C24.3126 73.9299 24.4315 73.9935 24.5608 74.0192C24.6902 74.0449 24.8243 74.0317 24.9462 73.9812C25.0681 73.9307 25.1722 73.8453 25.2455 73.7356C25.3188 73.6259 25.358 73.4969 25.358 73.365C25.358 73.1881 25.2877 73.0185 25.1626 72.8934C25.0375 72.7683 24.8679 72.698 24.691 72.698ZM29.358 72.698C29.226 72.698 29.0971 72.7371 28.9874 72.8104C28.8777 72.8837 28.7922 72.9879 28.7417 73.1097C28.6912 73.2316 28.6781 73.3657 28.7038 73.4951C28.7295 73.6245 28.793 73.7434 28.8863 73.8366C28.9796 73.9299 29.0985 73.9935 29.2278 74.0192C29.3572 74.0449 29.4913 74.0317 29.6132 73.9812C29.7351 73.9307 29.8393 73.8453 29.9126 73.7356C29.9859 73.6259 30.025 73.4969 30.025 73.365C30.025 73.1881 29.9547 73.0185 29.8296 72.8934C29.7045 72.7683 29.5349 72.698 29.358 72.698Z" fill="#3A416F" stroke="#3A416F" stroke-width="1.5" stroke-linejoin="round"/>
<path d="M35.346 82.998H13C11.6739 82.998 10.4022 82.4713 9.46448 81.5336C8.5268 80.5959 8 79.3241 8 77.998V53.998C8 52.672 8.5268 51.4002 9.46448 50.4625C10.4022 49.5248 11.6739 48.998 13 48.998H37C38.3261 48.998 39.5978 49.5248 40.5355 50.4625C41.4732 51.4002 42 52.672 42 53.998V73.598" stroke="#3A416F" stroke-width="2"/>
<path d="M8.5 55.5H42" stroke="#3A416F" stroke-width="1.2" stroke-linecap="round"/>
<path d="M41.0001 86.4C44.5347 86.4 47.4001 83.5346 47.4001 80C47.4001 76.4654 44.5347 73.6 41.0001 73.6C37.4655 73.6 34.6001 76.4654 34.6001 80C34.6001 83.5346 37.4655 86.4 41.0001 86.4Z" stroke="#3A416F" stroke-width="1.2"/>
<path d="M42.3622 82.612C42.2394 82.6118 42.1205 82.5694 42.0252 82.492L40.4652 81.221C40.3962 81.1713 40.3401 81.106 40.3013 81.0304C40.2625 80.9547 40.2423 80.871 40.2422 80.786V77.925C40.2422 77.7829 40.2987 77.6465 40.3992 77.546C40.4997 77.4455 40.636 77.389 40.7782 77.389C40.9203 77.389 41.0567 77.4455 41.1572 77.546C41.2577 77.6465 41.3142 77.7829 41.3142 77.925V80.532L42.7002 81.662C42.81 81.7516 42.8798 81.8811 42.8942 82.022C42.9017 82.0965 42.8936 82.1717 42.8703 82.2428C42.847 82.3139 42.8091 82.3794 42.759 82.435C42.7089 82.4905 42.6477 82.535 42.5793 82.5655C42.511 82.596 42.437 82.6119 42.3622 82.612Z" fill="#3A416F"/>
<path d="M40.7782 77.639C40.7023 77.639 40.6296 77.6692 40.576 77.7228C40.5223 77.7764 40.4922 77.8492 40.4922 77.925V80.786C40.4923 80.8325 40.5036 80.8782 40.5252 80.9193C40.5468 80.9603 40.578 80.9956 40.6162 81.022L42.1822 82.298C42.2112 82.3217 42.2446 82.3394 42.2805 82.3501C42.3163 82.3608 42.3539 82.3644 42.3912 82.3606C42.4284 82.3568 42.4645 82.3457 42.4975 82.3279C42.5304 82.3101 42.5596 82.2861 42.5832 82.257C42.6068 82.228 42.6245 82.1946 42.6353 82.1588C42.646 82.1229 42.6495 82.0853 42.6457 82.048C42.6419 82.0108 42.6308 81.9747 42.6131 81.9417C42.5953 81.9088 42.5712 81.8797 42.5422 81.856L41.0642 80.651V77.925C41.0642 77.8492 41.034 77.7764 40.9804 77.7228C40.9268 77.6692 40.854 77.639 40.7782 77.639ZM40.7782 77.139C40.9865 77.1393 41.1863 77.2222 41.3337 77.3695C41.481 77.5169 41.5639 77.7167 41.5642 77.925V80.414L42.8582 81.468C43.0197 81.5995 43.1224 81.7896 43.1437 81.9968C43.165 82.2039 43.1031 82.411 42.9717 82.5725C42.8403 82.7341 42.6501 82.8367 42.4429 82.858C42.2358 82.8793 42.0287 82.8174 41.8672 82.686L40.3132 81.419C40.2137 81.3462 40.1327 81.2509 40.077 81.1409C40.0212 81.0309 39.9921 80.9094 39.9922 80.786V77.925C39.9925 77.7167 40.0753 77.5169 40.2227 77.3695C40.37 77.2222 40.5698 77.1393 40.7782 77.139Z" fill="#3A416F"/>
</g>
<g clip-path="url(#clip9_16_2)">
<path d="M97 49.1H99C100.3 49.1 101.546 49.6162 102.465 50.5352C103.384 51.4541 103.9 52.7004 103.9 54V78C103.9 79.2996 103.384 80.5459 102.465 81.4648C101.546 82.3837 100.3 82.9 99 82.9H97" stroke="#3A416F" stroke-width="2.2"/>
<path d="M75.0001 82.9H73.0001C71.7005 82.9 70.4542 82.3837 69.5353 81.4648C68.6163 80.5459 68.1001 79.2996 68.1001 78V54C68.1001 52.7004 68.6163 51.4541 69.5353 50.5352C70.4542 49.6162 71.7005 49.1 73.0001 49.1H75.0001" stroke="#3A416F" stroke-width="2.2"/>
<path d="M89.6218 75.547C90.3326 75.7569 91.0864 75.775 91.8065 75.5994C92.5266 75.4237 93.1874 75.0607 93.7218 74.547L94.3558 73.924C94.6646 73.6338 94.8462 73.2333 94.861 72.8098C94.8758 72.3863 94.7226 71.9741 94.4348 71.663L92.4088 69.55C92.1163 69.2535 91.7197 69.0826 91.3033 69.0739C90.8869 69.0651 90.4835 69.2191 90.1788 69.503L88.7658 70.876C85.8256 69.2421 83.4456 66.7607 81.9358 63.755L83.3518 62.382C83.6482 62.0897 83.819 61.6934 83.8279 61.2772C83.8369 60.8611 83.6833 60.4578 83.3998 60.153L81.3418 58.007C81.0493 57.7108 80.653 57.5401 80.2368 57.5314C79.8206 57.5226 79.4174 57.6764 79.1128 57.96L78.5768 58.49C78.0153 59.032 77.6119 59.7166 77.4098 60.4704C77.2078 61.2242 77.2146 62.0188 77.4298 62.769C79.4918 69.469 83.5108 73.731 89.6218 75.547Z" stroke="#3A416F" stroke-width="1.8" stroke-miterlimit="3.999"/>
</g>
<g clip-path="url(#clip10_16_2)">
<path d="M163 69.498V77.998C163 79.3241 162.473 80.5959 161.536 81.5336C160.598 82.4713 159.326 82.998 158 82.998H134C132.674 82.998 131.402 82.4713 130.464 81.5336C129.527 80.5959 129 79.3241 129 77.998V53.998C129 52.672 129.527 51.4002 130.464 50.4625C131.402 49.5248 132.674 48.998 134 48.998H142.32" stroke="#3A416F" stroke-width="2"/>
<path d="M162.865 58.421L155.587 51.147C155.474 51.0337 155.33 50.9566 155.173 50.9253C155.016 50.894 154.853 50.91 154.706 50.9712C154.558 51.0325 154.431 51.1363 154.343 51.2694C154.254 51.4025 154.207 51.559 154.207 51.719V55.778C142.229 56.305 142.087 68.566 142.087 68.692C142.087 68.8837 142.155 69.0691 142.279 69.2152C142.403 69.3613 142.576 69.4584 142.765 69.4893C142.954 69.5202 143.148 69.4828 143.312 69.3838C143.476 69.2848 143.6 69.1307 143.661 68.949C145.478 63.5 151.926 62.467 154.21 62.273V66.273C154.21 66.433 154.257 66.5895 154.346 66.7226C154.434 66.8557 154.561 66.9595 154.709 67.0207C154.856 67.082 155.019 67.098 155.176 67.0667C155.333 67.0354 155.477 66.9582 155.59 66.845L162.864 59.571C162.939 59.496 162.999 59.4068 163.039 59.3088C163.08 59.2107 163.101 59.1056 163.101 58.9995C163.101 58.8933 163.08 58.7882 163.039 58.6902C162.999 58.5921 162.939 58.503 162.864 58.428L162.865 58.421ZM155.827 64.321V61.421C155.827 61.2067 155.742 61.0012 155.59 60.8496C155.439 60.6981 155.233 60.613 155.019 60.613C154.683 60.613 148.281 60.671 144.419 64.654C145.499 61.403 148.21 57.38 155.019 57.38C155.233 57.38 155.439 57.2948 155.59 57.1433C155.742 56.9918 155.827 56.7863 155.827 56.572V53.672L161.15 58.995L155.827 64.321Z" fill="#3A416F"/>
</g>
<path d="M109 1L101 9" stroke="#3A416F" stroke-width="1.5"/>
<path d="M101 8L109 16" stroke="#3A416F" stroke-width="1.5"/>
<path d="M131 1L126 7L121 1" stroke="white" stroke-width="1.58" stroke-miterlimit="10" stroke-linecap="round" stroke-linejoin="round"/>
<g clip-path="url(#clip11_16_2)">
<path d="M130.728 12.9609L137.266 19.999L130.728 27.0369" stroke="#666666" stroke-width="1.5"/>
<path d="M122.733 19.9756H136.733" stroke="#666666" stroke-width="1.5"/>
</g>
<defs>
<clipPath id="clip0_16_2">
<rect width="32" height="32" fill="white"/>
</clipPath>
<clipPath id="clip1_16_2">
<rect width="8" height="20" fill="white" transform="translate(100 20)"/>
</clipPath>
<clipPath id="clip2_16_2">
<rect width="20" height="20" fill="white" transform="translate(70 20)"/>
</clipPath>
<clipPath id="clip3_16_2">
<rect width="20" height="20" fill="white" transform="translate(140)"/>
</clipPath>
<clipPath id="clip4_16_2">
<rect width="20" height="20" fill="white" transform="translate(140 20)"/>
</clipPath>
<clipPath id="clip5_16_2">
<rect width="20" height="20" fill="white" transform="translate(40 20)"/>
</clipPath>
<clipPath id="clip6_16_2">
<rect width="20" height="20" fill="white" transform="translate(70)"/>
</clipPath>
<clipPath id="clip7_16_2">
<rect width="20" height="20" fill="white" transform="translate(40)"/>
</clipPath>
<clipPath id="clip8_16_2">
<rect width="51" height="51" fill="white" transform="translate(0 40)"/>
</clipPath>
<clipPath id="clip9_16_2">
<rect width="51" height="51" fill="white" transform="translate(60 40)"/>
</clipPath>
<clipPath id="clip10_16_2">
<rect width="51" height="51" fill="white" transform="translate(120 40)"/>
</clipPath>
<clipPath id="clip11_16_2">
<rect width="20" height="20" fill="white" transform="translate(120 10)"/>
</clipPath>
</defs>
</svg>
